<?xml version="1.0" encoding="utf-8"?>
<!-- Generator: Adobe Illustrator 24.0.3, SVG Export Plug-In . SVG Version: 6.00 Build 0)  -->
<svg version="1.1" id="Layer_1" xmlns="http://www.w3.org/2000/svg" xmlns:xlink="http://www.w3.org/1999/xlink" x="0px" y="0px"
	 viewBox="0 0 283.5 376.4" style="enable-background:new 0 0 283.5 376.4;" xml:space="preserve">
<style type="text/css">
	.st0{display:none;}
	.st1{fill-rule:evenodd;clip-rule:evenodd;fill:#3C5275;}
	.st2{opacity:0.21;clip-path:url(#SVGID_3_);}
	.st3{fill:#FFFFFF;}
</style>
<g id="לוגו_מקורי" class="st0">
</g>
<g id="טקסט" class="st0">
</g>
<g id="מגן" class="st0">
</g>
<g id="כלב_בסיס" class="st0">
</g>
<g id="כלב">
	<g>
		<g>
			<g>
				<path id="SVGID_1_" class="st1" d="M279.9,106.7c0.1-13.5-1.3-21.4-1.3-21.4s-41.4-29.8-135-29.8c-0.6,0-3.1,0-3.7,0
					c-93.6,0-135,29.8-135,29.8s-1.4,7.9-1.3,21.4C3.5,131.1,8,174,34.4,221.6c6,10.8,12.5,20.5,19.2,29.2c41,54.6,87.9,70,87.9,70
					s0.1,0,0.1,0c0.1,0,0.1,0,0.1,0s47-15.3,87.9-70c6.8-8.8,13.3-18.5,19.2-29.2C275.4,174,280,131.1,279.9,106.7z"/>
			</g>
			<g>
				<defs>
					<path id="SVGID_2_" d="M279.9,106.7c0.1-13.5-1.3-21.4-1.3-21.4s-41.4-29.8-135-29.8c-0.6,0-3.1,0-3.7,0
						c-93.6,0-135,29.8-135,29.8s-1.4,7.9-1.3,21.4C3.5,131.1,8,174,34.4,221.6c6,10.8,12.5,20.5,19.2,29.2c41,54.6,87.9,70,87.9,70
						s0.1,0,0.1,0c0.1,0,0.1,0,0.1,0s47-15.3,87.9-70c6.8-8.8,13.3-18.5,19.2-29.2C275.4,174,280,131.1,279.9,106.7z"/>
				</defs>
				<clipPath id="SVGID_3_">
					<use xlink:href="#SVGID_2_"  style="overflow:visible;"/>
				</clipPath>
				<g class="st2">
					
						<image style="overflow:visible;enable-background:new    ;" width="316" height="309" xlink:href="8A40E030665AF088.png"  transform="matrix(1 0 0 1 5.7925 66.1502)">
					</image>
				</g>
			</g>
		</g>
		<path class="st3" d="M254.7,129.7c-1.5-0.3-52.5-8.6-52.5-8.6v-5.8l0.1,0l-0.1-0.4v0l0,0l-2.4-7.3l5.7,6.5c0,0,0.4,2.2,0.6,3.4
			c0.2,1.2,44.8,8.7,44.8,8.7l3.9-3.7c0,0-31.6-3-43.4-6.9c-1.6-0.3-2.8-1.8-2.8-1.8l-7.9-10.7c0,0-17.3-8.2-30.4-9.7
			c-13.1-1.5-26.4,0.9-27.8,2.8c-1.4,1.9-10.3,22.9-10.3,22.9l-4.9,16l0.4-15.4c0,0,4.1-9.8,4.5-10.5
			c-23.9,24.9-91.6,76.4-91.6,76.4s-9.7,7.4-10.8,6.2c4.1,18.2,33.8,66.5,79.4,95.6c1.4-1.5,5.5-9.3,5.5-9.3l2.3-18.5l-8.8-19
			L83,233.5l-20.2,3.9L83,227.2l0,0l28.9,6.5c0,0,5.6,11.1,6.3,12.5c13.1-23.6,31.3-51,31.3-51l-14.4-14.4l-0.4-33.1l12.3-24.2
			l-9.4,24.3l3,31.5l12.9,10.3l6.5,2.1l12.8-10.3l3.8-13.8l0.6-7.4l1-23.4c0.8,6.2,3.1,24.8,2.3,27.4c7.6-5.6,15-8.4,23.7-7.1
			c-1.3-3.8-4-3.7-5-3.9c-0.9-0.2-4.5-0.1-4.5-0.1l-3,2.2c0,0,1.7-2.3,2.4-3.4c3.9-0.7,8.2,0.3,9.7,1.1c1,1.1,4.1,4.9,4.1,4.9
			s19.3,2.9,26.7,1.4c3.2-0.8,7.6-2.4,10.1-4.3c2.5-1.8,6.1-8.3,7-11.6C252.8,140.3,254.9,132.4,254.7,129.7z M103.8,228.5
			l-11.9-2.6l42.2-42.6l0.1-0.1l3.9,4.1L103.8,228.5z M196,119.6l-11.8-2.3l3.6-1.1l7.3-2.1l1-0.3l0.4,0.1
			C196.9,116.2,196,119.6,196,119.6z"/>
	</g>
</g>
</svg>
