<?xml version="1.0" encoding="utf-8"?>
<!-- Generator: Adobe Illustrator 24.0.3, SVG Export Plug-In . SVG Version: 6.00 Build 0)  -->
<svg version="1.1" id="Layer_1" xmlns="http://www.w3.org/2000/svg" xmlns:xlink="http://www.w3.org/1999/xlink" x="0px" y="0px"
	 viewBox="0 0 18 17.1" style="enable-background:new 0 0 18 17.1;" xml:space="preserve">
<style type="text/css">
	.st0{display:none;}
	.st1{fill-rule:evenodd;clip-rule:evenodd;fill:#3C5275;}
	.st2{opacity:0.21;clip-path:url(#SVGID_3_);}
	.st3{fill:#FFFFFF;}
</style>
<g id="כלב">
	<g>
		<g>
			<g>
				<path id="SVGID_1_" class="st1" d="M17,3.8c0-0.8-0.1-1.3-0.1-1.3s-2.4-1.8-7.8-1.8c0,0-0.2,0-0.2,0c-5.4,0-7.8,1.8-7.8,1.8
					S1,3,1,3.8c0,1.5,0.3,4.1,1.8,6.9c0.3,0.6,0.7,1.2,1.1,1.8C6.3,15.8,9,16.7,9,16.7s0,0,0,0c0,0,0,0,0,0s2.7-0.9,5.1-4.2
					c0.4-0.5,0.8-1.1,1.1-1.8C16.7,7.9,17,5.3,17,3.8z"/>
			</g>
			<g>
				<defs>
					<path id="SVGID_2_" d="M17,3.8c0-0.8-0.1-1.3-0.1-1.3s-2.4-1.8-7.8-1.8c0,0-0.2,0-0.2,0c-5.4,0-7.8,1.8-7.8,1.8S1,3,1,3.8
						c0,1.5,0.3,4.1,1.8,6.9c0.3,0.6,0.7,1.2,1.1,1.8C6.3,15.8,9,16.7,9,16.7s0,0,0,0c0,0,0,0,0,0s2.7-0.9,5.1-4.2
						c0.4-0.5,0.8-1.1,1.1-1.8C16.7,7.9,17,5.3,17,3.8z"/>
				</defs>
				<clipPath id="SVGID_3_">
					<use xlink:href="#SVGID_2_"  style="overflow:visible;"/>
				</clipPath>
				<g class="st2">
					
						<image style="overflow:visible;enable-background:new    ;" width="316" height="309" xlink:href="121CE5BD556815EA.png"  transform="matrix(5.791145e-02 0 0 6.031818e-02 1.1332 1.377)">
					</image>
				</g>
			</g>
		</g>
		<path class="st3" d="M15.5,5.2c-0.1,0-3-0.5-3-0.5V4.3l0,0l0,0v0l0,0l-0.1-0.4l0.3,0.4c0,0,0,0.1,0,0.2c0,0.1,2.6,0.5,2.6,0.5
			l0.2-0.2c0,0-1.8-0.2-2.5-0.4c-0.1,0-0.2-0.1-0.2-0.1l-0.5-0.6c0,0-1-0.5-1.8-0.6C9.9,2.9,9.1,3.1,9,3.2C9,3.3,8.4,4.6,8.4,4.6
			l-0.3,1l0-0.9c0,0,0.2-0.6,0.3-0.6C7.1,5.5,3.1,8.6,3.1,8.6S2.6,9,2.5,9c0.2,1.1,2,4,4.6,5.8c0.1-0.1,0.3-0.6,0.3-0.6l0.1-1.1
			l-0.5-1.1l-1.5-0.4l-1.2,0.2l1.2-0.6l0,0l1.7,0.4c0,0,0.3,0.7,0.4,0.8c0.8-1.4,1.8-3.1,1.8-3.1L8.6,8.3l0-2l0.7-1.5L8.8,6.3
			l0.2,1.9l0.7,0.6L10.1,9l0.7-0.6L11,7.5l0-0.4l0.1-1.4c0,0.4,0.2,1.5,0.1,1.7c0.4-0.3,0.9-0.5,1.4-0.4c-0.1-0.2-0.2-0.2-0.3-0.2
			c-0.1,0-0.3,0-0.3,0l-0.2,0.1c0,0,0.1-0.1,0.1-0.2c0.2,0,0.5,0,0.6,0.1c0.1,0.1,0.2,0.3,0.2,0.3S14,7.1,14.4,7
			c0.2,0,0.4-0.1,0.6-0.3c0.1-0.1,0.4-0.5,0.4-0.7C15.4,5.8,15.6,5.4,15.5,5.2z M6.8,11.2L6.1,11l2.4-2.6l0,0l0.2,0.2L6.8,11.2z
			 M12.1,4.6l-0.7-0.1l0.2-0.1l0.4-0.1l0.1,0l0,0C12.2,4.4,12.1,4.6,12.1,4.6z"/>
	</g>
</g>
</svg>
