<svg enable-background="new 0 0 16 16" viewBox="0 0 16 16" xmlns="http://www.w3.org/2000/svg" xmlns:xlink="http://www.w3.org/1999/xlink"><clipPath id="a"><path d="m16 4.7c0-.7-.1-1.1-.1-1.1s-2.4-1.5-7.8-1.5h-.2c-5.4 0-7.8 1.5-7.8 1.5s-.1.4-.1 1.1c0 1.2.3 3.3 1.8 5.7.3.5.7 1 1.1 1.5 2.4 2.7 5.1 3.4 5.1 3.4s0 0 0 0 2.7-.8 5.1-3.5c.4-.4.8-.9 1.1-1.5 1.5-2.3 1.8-4.4 1.8-5.6z"/></clipPath><path clip-rule="evenodd" d="m16 4.7c0-.7-.1-1.1-.1-1.1s-2.4-1.5-7.8-1.5h-.2c-5.4 0-7.8 1.5-7.8 1.5s-.1.4-.1 1.1c0 1.2.3 3.3 1.8 5.7.3.5.7 1 1.1 1.5 2.4 2.7 5.1 3.4 5.1 3.4s0 0 0 0 2.7-.8 5.1-3.5c.4-.4.8-.9 1.1-1.5 1.5-2.3 1.8-4.4 1.8-5.6z" fill="#3c5275" fill-rule="evenodd"/><g clip-path="url(#a)" opacity=".21"><image height="309" overflow="visible" transform="matrix(.05791145 0 0 .04974815 .1277 2.6723)" width="316" xlink:href="92566EEEC544073E.png"/></g><path d="m14.5 5.8c-.1 0-3-.4-3-.4v-.3l-.1-.4.3.3v.2c0 .1 2.6.4 2.6.4l.2-.2s-1.8-.2-2.5-.3c-.1 0-.2-.1-.2-.1l-.5-.5s-1-.4-1.8-.5c-.6 0-1.4.1-1.5.2 0 .1-.6 1.1-.6 1.1l-.2.8v-.8s.2-.5.3-.5c-1.4 1.3-5.4 3.8-5.4 3.8s-.5.4-.6.3c.2.9 2 3.3 4.6 4.8.1-.1.3-.5.3-.5l.1-.9-.5-.9-1.4-.4-1.2.2 1.2-.5 1.7.3s.3.6.4.6c.8-1.2 1.8-2.5 1.8-2.5l-.9-.7v-1.6l.7-1.2-.5 1.1.2 1.6.7.5.4.1.7-.5.2-.7v-.4l.1-1.2c0 .3.2 1.2.1 1.4.4-.3.9-.4 1.4-.4-.1-.1-.2-.1-.3-.1s-.3 0-.3 0l-.2.1s.1-.1.1-.2c.2 0 .5 0 .6.1s.2.2.2.2 1.1.1 1.5.1c.2 0 .4-.1.6-.2.1-.1.4-.4.4-.6.2-.1.4-.5.3-.7zm-8.7 5-.7-.1 2.4-2.1.2.2zm5.3-5.5-.7-.1.2-.1.4-.1h.1c.1.2 0 .3 0 .3z" fill="#fff"/></svg>