<svg enable-background="new 0 0 349.464 349.464" viewBox="0 0 349.464 349.464" xmlns="http://www.w3.org/2000/svg"><g fill="#03b6fc"><path d="m36.54 194.948c-10.848-32.102-8.437-66.554 6.79-97.003 15.251-30.497 41.517-53.332 73.971-64.293l-9.559-28.265c-39.953 13.503-72.312 41.63-91.101 79.216-18.808 37.621-21.785 80.207-8.36 119.904z"/><path d="m332.825 84.603c-18.79-37.579-51.148-65.713-91.108-79.216l-9.559 28.265c32.454 10.967 58.726 33.802 73.971 64.293 15.227 30.455 17.638 64.902 6.79 97.003l28.259 9.559c13.432-39.698 10.455-82.283-8.353-119.904z"/><path d="m293.921 293.527-21.839-20.323c-48.135 51.727-128.992 55.026-180.247 7.333l-20.323 21.839c29.995 27.913 68.177 41.702 106.377 41.702 42.395 0 84.807-17 116.032-50.551z"/></g><circle cx="174.733" cy="166.319" fill="#394e6f" r="14.613"/></svg>