<svg enable-background="new 0 0 283.5 376.4" viewBox="0 0 283.5 376.4" xmlns="http://www.w3.org/2000/svg" xmlns:xlink="http://www.w3.org/1999/xlink"><clipPath id="a"><path d="m279.9 106.7c.1-13.5-1.3-21.4-1.3-21.4s-41.4-29.8-135-29.8c-.6 0-3.1 0-3.7 0-93.6 0-135 29.8-135 29.8s-1.4 7.9-1.3 21.4c-.1 24.4 4.4 67.3 30.8 114.9 6 10.8 12.5 20.5 19.2 29.2 41 54.6 87.9 70 87.9 70s.1 0 .1 0h.1s47-15.3 87.9-70c6.8-8.8 13.3-18.5 19.2-29.2 26.6-47.6 31.2-90.5 31.1-114.9z"/></clipPath><path clip-rule="evenodd" d="m279.9 106.7c.1-13.5-1.3-21.4-1.3-21.4s-41.4-29.8-135-29.8c-.6 0-3.1 0-3.7 0-93.6 0-135 29.8-135 29.8s-1.4 7.9-1.3 21.4c-.1 24.4 4.4 67.3 30.8 114.9 6 10.8 12.5 20.5 19.2 29.2 41 54.6 87.9 70 87.9 70s.1 0 .1 0h.1s47-15.3 87.9-70c6.8-8.8 13.3-18.5 19.2-29.2 26.6-47.6 31.2-90.5 31.1-114.9z" fill="#3c5275" fill-rule="evenodd"/><g clip-path="url(#a)" opacity=".21"><image height="309" overflow="visible" transform="translate(5.7925 66.1502)" width="316" xlink:href="8A40E030665AF088.png"/></g><path d="m254.7 129.7c-1.5-.3-52.5-8.6-52.5-8.6v-5.8h.1l-.1-.4-2.4-7.3 5.7 6.5s.4 2.2.6 3.4 44.8 8.7 44.8 8.7l3.9-3.7s-31.6-3-43.4-6.9c-1.6-.3-2.8-1.8-2.8-1.8l-7.9-10.7s-17.3-8.2-30.4-9.7-26.4.9-27.8 2.8-10.3 22.9-10.3 22.9l-4.9 16 .4-15.4s4.1-9.8 4.5-10.5c-23.9 24.9-91.6 76.4-91.6 76.4s-9.7 7.4-10.8 6.2c4.1 18.2 33.8 66.5 79.4 95.6 1.4-1.5 5.5-9.3 5.5-9.3l2.3-18.5-8.8-19-25.2-7.1-20.2 3.9 20.2-10.2 28.9 6.5s5.6 11.1 6.3 12.5c13.1-23.6 31.3-51 31.3-51l-14.4-14.4-.4-33.1 12.3-24.2-9.4 24.3 3 31.5 12.9 10.3 6.5 2.1 12.8-10.3 3.8-13.8.6-7.4 1-23.4c.8 6.2 3.1 24.8 2.3 27.4 7.6-5.6 15-8.4 23.7-7.1-1.3-3.8-4-3.7-5-3.9-.9-.2-4.5-.1-4.5-.1l-3 2.2s1.7-2.3 2.4-3.4c3.9-.7 8.2.3 9.7 1.1 1 1.1 4.1 4.9 4.1 4.9s19.3 2.9 26.7 1.4c3.2-.8 7.6-2.4 10.1-4.3 2.5-1.8 6.1-8.3 7-11.6 1.1-3.1 3.2-11 3-13.7zm-150.9 98.8-11.9-2.6 42.2-42.6.1-.1 3.9 4.1zm92.2-108.9-11.8-2.3 3.6-1.1 7.3-2.1 1-.3.4.1c.4 2.3-.5 5.7-.5 5.7z" fill="#fff"/></svg>