<svg enable-background="new 0 0 276.3 265.3" viewBox="0 0 276.3 265.3" xmlns="http://www.w3.org/2000/svg" xmlns:xlink="http://www.w3.org/1999/xlink"><symbol id="a" viewBox="-158 -154.5 316 309"><g transform="translate(-3.595 -55.5)"><path clip-rule="evenodd" d="m141.7 132c.2 7.2-.3 14.3-1.3 21.4 0 0-41.4 29.8-135 29.8h-3.7c-93.6 0-135-29.8-135-29.8-1-7.1-1.5-14.2-1.3-21.4-.1-24.4 4.4-67.3 30.8-114.9 5.7-10.2 12.1-20 19.2-29.2 41-54.6 87.9-70 87.9-70h.2s47 15.3 87.9 70c7.1 9.2 13.6 19 19.2 29.2 26.6 47.6 31.2 90.5 31.1 114.9z" fill="#3c5275" fill-rule="evenodd"/><g clip-path="url(#b)" opacity=".21"><image height="310" overflow="visible" transform="matrix(.9968 0 0 -.9968 -154.3937 210)" width="317" xlink:href="5932AA9AAB2BAF23.png"/></g><path d="m116.5 109c-1.5.3-52.5 8.6-52.5 8.6v5.8h.1l-.1.4-2.4 7.3 5.7-6.5s.4-2.2.6-3.4 44.8-8.7 44.8-8.7l3.9 3.7s-31.6 3-43.4 6.9c-1.1.3-2.1.9-2.8 1.8l-7.9 10.7s-17.3 8.2-30.4 9.7-26.4-.9-27.8-2.8-10.3-22.9-10.3-22.9l-4.9-16 .4 15.4s4.1 9.8 4.5 10.5c-23.9-24.9-91.6-76.4-91.6-76.4s-9.7-7.4-10.8-6.2c4.1-18.2 33.8-66.5 79.4-95.6 1.4 1.5 5.5 9.3 5.5 9.3l2.3 18.5-8.8 19-25.2 7.1-20.2-3.9 20.2 10.2 28.9-6.5s5.6-11.1 6.3-12.5c13.1 23.6 31.3 51 31.3 51l-14.4 14.4-.4 33.1 12.3 24.2-9.4-24.3 3-31.5 12.9-10.3 6.5-2.1 12.8 10.3 3.8 13.8.6 7.4 1 23.4c.8-6.2 3.1-24.8 2.3-27.4 7.6 5.6 15 8.4 23.7 7.1-1.3 3.8-4 3.7-5 3.9-1.5.1-3 .2-4.5.1l-3-2.2s1.7 2.3 2.4 3.4c3.3.5 6.6.2 9.7-1.1 1-1.1 4.1-4.9 4.1-4.9s19.3-2.9 26.7-1.4c3.2.8 7.6 2.4 10.1 4.3 2.5 1.8 6.1 8.3 7 11.6 1.1 3.1 3.2 11 3 13.7zm-150.9-98.8-11.9 2.6 42.2 42.6.1.1 3.9-4.1zm92.2 108.9-11.8 2.3 3.6 1.1 7.3 2.1 1 .3.4-.1c.2-1.9 0-3.8-.5-5.7z" fill="#fff"/></g></symbol><clipPath id="b"><path d="m141.7 132c.2 7.2-.3 14.3-1.3 21.4 0 0-41.4 29.8-135 29.8h-3.7c-93.6 0-135-29.8-135-29.8-1-7.1-1.5-14.2-1.3-21.4-.1-24.4 4.4-67.3 30.8-114.9 5.7-10.2 12.1-20 19.2-29.2 41-54.6 87.9-70 87.9-70h.2s47 15.3 87.9 70c7.1 9.2 13.6 19 19.2 29.2 26.6 47.6 31.2 90.5 31.1 114.9z"/></clipPath><use height="309" transform="matrix(1 0 0 -1 138.155 127.7)" width="316" x="-158" xlink:href="#a" y="-154.5"/></svg>